<mxfile host="Electron" agent="Mozilla/5.0 (Macintosh; Intel Mac OS X 10_15_7) AppleWebKit/537.36 (KHTML, like Gecko) draw.io/26.0.4 Chrome/128.0.6613.186 Electron/32.2.5 Safari/537.36" version="26.0.4">
  <diagram name="Страница — 1" id="1Wa_6sw6Y9wKjXT64YOc">
    <mxGraphModel dx="1383" dy="845" grid="1" gridSize="10" guides="1" tooltips="1" connect="1" arrows="1" fold="1" page="1" pageScale="1" pageWidth="827" pageHeight="1169" math="0" shadow="0">
      <root>
        <mxCell id="0" />
        <mxCell id="1" parent="0" />
        <mxCell id="Og3Y2YEb2nvqTPrRCJNT-1" value="Клиентский интерфейс&lt;div&gt;мед персонала&lt;/div&gt;" style="rounded=1;whiteSpace=wrap;html=1;" parent="1" vertex="1">
          <mxGeometry x="80" y="80" width="120" height="60" as="geometry" />
        </mxCell>
        <mxCell id="xrXuO_bstqBrrl2TlyDb-9" style="edgeStyle=orthogonalEdgeStyle;rounded=0;orthogonalLoop=1;jettySize=auto;html=1;" edge="1" parent="1" source="Og3Y2YEb2nvqTPrRCJNT-2" target="xrXuO_bstqBrrl2TlyDb-8">
          <mxGeometry relative="1" as="geometry" />
        </mxCell>
        <mxCell id="xrXuO_bstqBrrl2TlyDb-10" value="Фарма- данные" style="edgeLabel;html=1;align=center;verticalAlign=middle;resizable=0;points=[];" vertex="1" connectable="0" parent="xrXuO_bstqBrrl2TlyDb-9">
          <mxGeometry x="-0.2378" y="1" relative="1" as="geometry">
            <mxPoint as="offset" />
          </mxGeometry>
        </mxCell>
        <mxCell id="Og3Y2YEb2nvqTPrRCJNT-2" value="Клиентский интерфейс&lt;div&gt;фармацевтики&lt;/div&gt;" style="rounded=1;whiteSpace=wrap;html=1;" parent="1" vertex="1">
          <mxGeometry x="240" y="80" width="120" height="60" as="geometry" />
        </mxCell>
        <mxCell id="xrXuO_bstqBrrl2TlyDb-14" style="edgeStyle=orthogonalEdgeStyle;rounded=0;orthogonalLoop=1;jettySize=auto;html=1;" edge="1" parent="1" source="Og3Y2YEb2nvqTPrRCJNT-3" target="xrXuO_bstqBrrl2TlyDb-13">
          <mxGeometry relative="1" as="geometry" />
        </mxCell>
        <mxCell id="xrXuO_bstqBrrl2TlyDb-21" value="Данные управления клиниками" style="edgeLabel;html=1;align=center;verticalAlign=middle;resizable=0;points=[];" vertex="1" connectable="0" parent="xrXuO_bstqBrrl2TlyDb-14">
          <mxGeometry x="-0.1561" relative="1" as="geometry">
            <mxPoint as="offset" />
          </mxGeometry>
        </mxCell>
        <mxCell id="Og3Y2YEb2nvqTPrRCJNT-3" value="Клиентский&amp;nbsp;&lt;div&gt;интерфейс управления&lt;/div&gt;" style="rounded=1;whiteSpace=wrap;html=1;" parent="1" vertex="1">
          <mxGeometry x="400" y="80" width="120" height="60" as="geometry" />
        </mxCell>
        <mxCell id="Og3Y2YEb2nvqTPrRCJNT-5" value="Шина данных" style="rounded=1;whiteSpace=wrap;html=1;" parent="1" vertex="1">
          <mxGeometry x="320" y="290" width="120" height="60" as="geometry" />
        </mxCell>
        <mxCell id="xrXuO_bstqBrrl2TlyDb-24" value="" style="edgeStyle=orthogonalEdgeStyle;rounded=0;orthogonalLoop=1;jettySize=auto;html=1;startArrow=classic;startFill=1;" edge="1" parent="1" source="Og3Y2YEb2nvqTPrRCJNT-6" target="Og3Y2YEb2nvqTPrRCJNT-5">
          <mxGeometry relative="1" as="geometry" />
        </mxCell>
        <mxCell id="Og3Y2YEb2nvqTPrRCJNT-6" value="Data Platform" style="rounded=1;whiteSpace=wrap;html=1;" parent="1" vertex="1">
          <mxGeometry x="320" y="400" width="120" height="60" as="geometry" />
        </mxCell>
        <mxCell id="xrXuO_bstqBrrl2TlyDb-6" style="edgeStyle=orthogonalEdgeStyle;rounded=0;orthogonalLoop=1;jettySize=auto;html=1;entryX=0.5;entryY=0;entryDx=0;entryDy=0;exitX=0.5;exitY=1;exitDx=0;exitDy=0;" edge="1" parent="1" source="xrXuO_bstqBrrl2TlyDb-1" target="Og3Y2YEb2nvqTPrRCJNT-5">
          <mxGeometry relative="1" as="geometry">
            <Array as="points">
              <mxPoint x="140" y="260" />
              <mxPoint x="380" y="260" />
            </Array>
          </mxGeometry>
        </mxCell>
        <mxCell id="xrXuO_bstqBrrl2TlyDb-1" value="Мед сервисы" style="rounded=1;whiteSpace=wrap;html=1;" vertex="1" parent="1">
          <mxGeometry x="80" y="180" width="120" height="50" as="geometry" />
        </mxCell>
        <mxCell id="xrXuO_bstqBrrl2TlyDb-2" style="edgeStyle=orthogonalEdgeStyle;rounded=0;orthogonalLoop=1;jettySize=auto;html=1;entryX=0.5;entryY=0;entryDx=0;entryDy=0;" edge="1" parent="1" source="Og3Y2YEb2nvqTPrRCJNT-1" target="xrXuO_bstqBrrl2TlyDb-1">
          <mxGeometry relative="1" as="geometry" />
        </mxCell>
        <mxCell id="xrXuO_bstqBrrl2TlyDb-7" value="Медицинские данные" style="edgeLabel;html=1;align=center;verticalAlign=middle;resizable=0;points=[];" vertex="1" connectable="0" parent="xrXuO_bstqBrrl2TlyDb-2">
          <mxGeometry x="0.0035" y="-2" relative="1" as="geometry">
            <mxPoint as="offset" />
          </mxGeometry>
        </mxCell>
        <mxCell id="xrXuO_bstqBrrl2TlyDb-4" style="edgeStyle=orthogonalEdgeStyle;rounded=0;orthogonalLoop=1;jettySize=auto;html=1;exitX=0.5;exitY=1;exitDx=0;exitDy=0;" edge="1" parent="1" source="Og3Y2YEb2nvqTPrRCJNT-3" target="Og3Y2YEb2nvqTPrRCJNT-3">
          <mxGeometry relative="1" as="geometry" />
        </mxCell>
        <mxCell id="xrXuO_bstqBrrl2TlyDb-12" style="edgeStyle=orthogonalEdgeStyle;rounded=0;orthogonalLoop=1;jettySize=auto;html=1;entryX=0.5;entryY=0;entryDx=0;entryDy=0;" edge="1" parent="1" source="xrXuO_bstqBrrl2TlyDb-8" target="Og3Y2YEb2nvqTPrRCJNT-5">
          <mxGeometry relative="1" as="geometry" />
        </mxCell>
        <mxCell id="xrXuO_bstqBrrl2TlyDb-8" value="Мед сервисы" style="rounded=1;whiteSpace=wrap;html=1;" vertex="1" parent="1">
          <mxGeometry x="240" y="180" width="120" height="50" as="geometry" />
        </mxCell>
        <mxCell id="xrXuO_bstqBrrl2TlyDb-15" style="edgeStyle=orthogonalEdgeStyle;rounded=0;orthogonalLoop=1;jettySize=auto;html=1;entryX=0.5;entryY=0;entryDx=0;entryDy=0;" edge="1" parent="1" source="xrXuO_bstqBrrl2TlyDb-13" target="Og3Y2YEb2nvqTPrRCJNT-5">
          <mxGeometry relative="1" as="geometry">
            <Array as="points">
              <mxPoint x="460" y="260" />
              <mxPoint x="380" y="260" />
            </Array>
          </mxGeometry>
        </mxCell>
        <mxCell id="xrXuO_bstqBrrl2TlyDb-13" value="Офис сервисы" style="rounded=1;whiteSpace=wrap;html=1;" vertex="1" parent="1">
          <mxGeometry x="400" y="180" width="120" height="50" as="geometry" />
        </mxCell>
        <mxCell id="xrXuO_bstqBrrl2TlyDb-16" style="edgeStyle=orthogonalEdgeStyle;rounded=0;orthogonalLoop=1;jettySize=auto;html=1;" edge="1" parent="1" source="xrXuO_bstqBrrl2TlyDb-17" target="xrXuO_bstqBrrl2TlyDb-19">
          <mxGeometry relative="1" as="geometry" />
        </mxCell>
        <mxCell id="xrXuO_bstqBrrl2TlyDb-22" value="Финансовые данные" style="edgeLabel;html=1;align=center;verticalAlign=middle;resizable=0;points=[];" vertex="1" connectable="0" parent="xrXuO_bstqBrrl2TlyDb-16">
          <mxGeometry x="-0.0541" y="-1" relative="1" as="geometry">
            <mxPoint as="offset" />
          </mxGeometry>
        </mxCell>
        <mxCell id="xrXuO_bstqBrrl2TlyDb-17" value="Клиентский&amp;nbsp;&lt;div&gt;интерфейс финтех&lt;/div&gt;" style="rounded=1;whiteSpace=wrap;html=1;" vertex="1" parent="1">
          <mxGeometry x="560" y="80" width="120" height="60" as="geometry" />
        </mxCell>
        <mxCell id="xrXuO_bstqBrrl2TlyDb-18" style="edgeStyle=orthogonalEdgeStyle;rounded=0;orthogonalLoop=1;jettySize=auto;html=1;exitX=0.5;exitY=1;exitDx=0;exitDy=0;" edge="1" parent="1" source="xrXuO_bstqBrrl2TlyDb-17" target="xrXuO_bstqBrrl2TlyDb-17">
          <mxGeometry relative="1" as="geometry" />
        </mxCell>
        <mxCell id="xrXuO_bstqBrrl2TlyDb-20" style="edgeStyle=orthogonalEdgeStyle;rounded=0;orthogonalLoop=1;jettySize=auto;html=1;entryX=0.5;entryY=0;entryDx=0;entryDy=0;" edge="1" parent="1" source="xrXuO_bstqBrrl2TlyDb-19" target="Og3Y2YEb2nvqTPrRCJNT-5">
          <mxGeometry relative="1" as="geometry">
            <Array as="points">
              <mxPoint x="620" y="260" />
              <mxPoint x="380" y="260" />
            </Array>
          </mxGeometry>
        </mxCell>
        <mxCell id="xrXuO_bstqBrrl2TlyDb-19" value="Финтех сервисы" style="rounded=1;whiteSpace=wrap;html=1;" vertex="1" parent="1">
          <mxGeometry x="560" y="180" width="120" height="50" as="geometry" />
        </mxCell>
        <mxCell id="xrXuO_bstqBrrl2TlyDb-27" style="edgeStyle=orthogonalEdgeStyle;rounded=0;orthogonalLoop=1;jettySize=auto;html=1;entryX=0.5;entryY=1;entryDx=0;entryDy=0;startArrow=classic;startFill=1;" edge="1" parent="1" source="xrXuO_bstqBrrl2TlyDb-23" target="Og3Y2YEb2nvqTPrRCJNT-6">
          <mxGeometry relative="1" as="geometry" />
        </mxCell>
        <mxCell id="xrXuO_bstqBrrl2TlyDb-23" value="ИИ-сервисы" style="rounded=1;whiteSpace=wrap;html=1;" vertex="1" parent="1">
          <mxGeometry x="320" y="500" width="120" height="60" as="geometry" />
        </mxCell>
      </root>
    </mxGraphModel>
  </diagram>
</mxfile>
